<?xml version="1.0" encoding="utf-8"?>
<!-- Generator: Adobe Illustrator 23.0.1, SVG Export Plug-In . SVG Version: 6.00 Build 0)  -->
<svg version="1.1" id="Camada_1" xmlns="http://www.w3.org/2000/svg" xmlns:xlink="http://www.w3.org/1999/xlink" x="0px" y="0px"
	 viewBox="0 0 703.4 379" style="enable-background:new 0 0 703.4 379;" xml:space="preserve">
<style type="text/css">
	.st0{fill:#FFFFFF;}
</style>
<title>Prancheta 1</title>
<path class="st0" d="M426.6,0.8c13.3,6.9,14.6,18.7,13,31.6c-3.2,26.5-18.6,42.7-43.6,50.3c-4.1,1.2-6.5,2.9-7.5,7.4
	c-2.7,11.8-6,23.5-8.9,35.2c-0.4,1.4-0.2,2.9-0.3,5.4c2.7-1.9,4.7-3.6,6.9-4.8c6.3-3.5,12.4-7.7,19.2-10c6.6-2.2,13.9-0.4,18.7,4.6
	c3.9-3.3,6.9-7.5,11.1-9.2c6.2-2.5,12.2,2.7,10.9,8.3c-1.7,7.4-3.8,14.7-5.4,22c-3.3,14.9-6.4,29.8-9.4,44.8
	c-0.3,1.8-0.2,3.7,0.3,5.4c0.7,2.1,1.7,4.1,2.7,6c1.9-1.1,4.5-1.7,5.7-3.4c5.1-6.9,10.9-13.7,14.4-21.4c6.9-15.2,12.5-31,18.4-46.7
	c1.8-4.9,2.4-10.3,3.7-15.5c1.5-5.6,7.4-10.7,13.6-8.8c4.6,1.3,7.5,5.8,6.8,10.6c-0.3,1.8-0.4,3.6-0.9,5.4c-0.5,1.7-1.2,3.1-1.2,4.9
	c2.8-3.6,5.6-7.1,8.3-10.7c4.3-6,11.1-8.5,17.2-6.3c3.9,1.5,6.9,7.9,6.6,14c0,0.4,0.4,0.8,0.9,2c1.1-1.3,2.1-2.7,3-4.1
	c2.8-5.1,5.4-10.3,8.2-15.4c3-5.6,8.5-7.9,14.1-9c5.3-1,10.8,4.3,10.5,10.6c-0.4,7.4-1.4,14.8-3,22.1c-3.4,16.6-7.3,33-10.7,49.6
	c-2.1,10.1-3.6,20.2-5.2,30.4c-0.3,1.8,0.4,3.8,0.6,5.6l1.7,0.7c2.2-3.1,5-5.9,6.4-9.3c5-11.9,10.3-23.7,14.1-36.1
	c2.4-8,1.8-16.8,3.4-25.1c2.9-16,8.4-31,19.2-43.6c9.3-10.8,25.1-13.3,34.8-3.5c2.1,2.1,3.6,4.8,6.3,8.5c2-7,3.5-12.6,5.3-18.1
	c1-3,2.3-5.8,4-8.4c2.3-3.5,7.9-4.2,12.2-1.7c3.7,2.1,2.5,5.4,1.6,8.6c-6.6,22.3-14.7,44.4-17,67.7c-0.9,9,0.3,18.2,1.6,27.1
	c0.6,3.7,3.8,7.1,5.8,10.6l1.8-0.1c2.3-6.1,4.8-12.1,6.8-18.2c6.1-18.4,11.9-36.9,17.9-55.4c0.4-1.4,1.1-2.8,1.9-4
	c7.3-10.6,17.6-12.4,25.1,0.1c4.4,7.3,5.4,15.5,5.1,23.3c-0.5,14.2-1.7,28.5-6.6,42.1c-4.8,13.7-12.3,24.6-26.1,30
	c-4.2,1.7-9,1.7-13.4,2.9c-2.6,0.6-5,1.9-7,3.7c-7.2,7.9-13.8,16.4-21.4,24c-12.9,12.8-29.3,17.1-46.9,17.7
	c-22.8,0.7-45.3-1.5-68-3.9c-26.3-2.8-52.7-6-79.1-6.9c-24.6-0.9-49.3,0.9-73.9,1.8c-1.5,0.1-3.5,2.1-4.1,3.6
	c-3.3,8.8-6.4,17.6-9.2,26.6c-1.2,3.8-1.1,8-2.5,11.7c-3,8.2-5.8,16.6-10,24.2c-6.5,11.8-13.8,23.3-21.3,34.5
	c-2.1,3.2-6.2,5.2-9.4,7.7c-2.7,2.1-5.5,4.1-8.1,6.3c-10,8.6-21.1,15.2-34.2,16.9c-15.8,2.1-31.2,1.6-44-10.2
	c-7-6.4-9.4-14.4-8.9-23.2c0.6-9.1,3.3-17.6,6.8-26.2c6-14.4,14.8-26.5,24.8-37.8c8.2-9.4,17.3-18,28.8-23.8
	c7.5-3.8,14.4-8.6,20.8-12.5c-5.4-5.1-11.6-9.8-16.2-15.7c-8.6-11.2-10.5-24.5-10.2-38.4c0.2-15.9,3.7-31.5,10.2-46
	c5.8-12.7,12.9-25.2,26.5-31.5c7.1-3.3,14.2-4.7,22,4.3c9.3,10.9,8.5,22.3,5,34.7c-3.7,13.3-10.4,25-19.2,35.3
	c-5.9,7-13.3,12.8-20.3,18.7c-2.8,2.3-4.5,4.3-2.4,7.7c2,3.4,4.3,6.6,6.8,9.6c5.2,6.1,10.8,6.1,17.2,0.9c9.3-7.5,15-17.6,20.4-27.9
	c2.5-4.7,4.9-9.4,7.2-14.1c0.7-1.4,1.1-2.9,1.8-4.7c-1.4-0.4-2.2-0.7-2.9-0.8c-8-1.4-10.2-3.5-10.6-10.4
	c-0.4-5.4,4.9-12.2,10.4-13.6c1.9-0.5,3.9-0.8,5.9-1.1c7-1.1,9.6-3.9,11.2-10.8c3.5-15.5,7.3-30.9,11-46.3c1.1-4.7,0.5-5.6-4.7-5.6
	c-12.5,0-25.1-0.3-37.6,0.2c-17.7,0.7-35.3,2.7-51.6,10.1c-8.3,3.7-14.8,9.9-20.5,16.9c-1.6,2-3.9,3.3-5.9,5l-1.5-1.2
	c1.1-3.2,2-6.4,3.3-9.5c9.4-21.6,25.9-35.2,47.9-42.7c16.6-5.8,34.1-8.4,51.6-7.6c7.7,0.4,15.5-0.5,23.3-0.5c4.9,0,5.7-3.9,7.3-7.1
	c3.8-7.8,6.6-16.3,11.5-23.5c7-10.4,14.5-20.8,26.5-26.3c2.5-1.1,5.2-1.6,7.8-2.3L426.6,0.8z M246.7,371.6l0.6-1.4
	c16.4,2.7,30.1-3.8,42-13.8c18-15.2,29.7-35,38.2-56.8c1.7-4.3,3.4-8.7,5.1-13c1.1-2.7,3.7-6,3-7.9c-2.8-7.1-0.2-13,2.1-19.3
	c0.5-1.4,1.3-2.7,1.5-4.1c0.2-1.4-0.1-2.9-0.8-4.1c-0.5-0.7-2.4-0.9-3.5-0.6c-6.3,1.6-12.7,2.9-18.8,5.2c-11.4,4.2-23,8.1-33.8,13.5
	c-14.1,7.1-25.8,17.7-36.2,29.6c-12.3,14.1-22.3,29.4-23.4,48.9c-0.4,6,0.4,11.9,6.1,15.2C234.6,366.2,240.8,368.7,246.7,371.6z
	 M543.8,124.4c-1.3,0.4-1.8,0.4-1.9,0.6c-7.5,10.4-15.3,20.7-22.4,31.4c-2.3,3.4-3.3,7.8-4.4,11.9c-2.8,10.5-5.1,21.1-8.1,31.6
	c-1.6,5.6-6.5,7.7-12.2,6.3c-3.7-0.9-5.3-4.4-4.5-10.2c0.1-1.2,0.3-2.3,0.6-3.4c3.1-13.2,6.2-26.4,9.3-39.6c0.9-4,1.6-8,2.4-12.1
	l-1.4-0.4c-1.6,2-3.6,3.9-4.8,6.2c-4.3,8.2-9.3,16.1-12,24.8c-3.2,9.9-4.1,20.4-6.3,30.6c-1.3,6.3-6.5,9.8-12.4,9
	c-4.4-0.6-6.2-3.6-6.3-10.5c-0.1-2.8-0.1-5.6-0.1-9.6c-2.1,3-3.3,4.9-4.7,6.7c-3.2,4.3-6,9.2-10,12.6c-8.8,7.6-21.9,6.9-26.1-7
	c-0.6-1.7-1.4-3.4-2.2-5.1c-3.9,4.5-7.1,8.9-11.1,12.5c-12,10.9-23.3,7.9-29.9-4c-3.6-6.5-4.4-14.6-6.6-22.2
	c-2.2,13.4-4.3,26.7-6.5,40.2c1.2,0.2,2.3,0.4,3.5,0.4c5.3-0.4,10.5-1.1,15.8-1.4c6.9-0.3,13.7-0.2,20.6-0.5
	c10.9-0.4,21.7-1.8,32.5-1.4c18.2,0.8,36.5,2.3,54.6,4.1c13.5,1.3,26.8,3.8,40.3,5.4c14.8,1.7,29.7,3,44.6,4.2
	c11.9,1.1,23.9-0.6,35.1-4.9c11.6-4.5,21.9-11,28.1-22.5c1.6-3,1.9-5.5-1.5-7.4c-5.6-3.1-8.6-8.1-10.3-14
	c-1.6-5.3-3.1-10.7-4.9-16.9c-1,1.5-1.8,2.5-2.4,3.6c-2.9,5.2-5.6,10.5-8.7,15.6c-4.3,7.5-13.6,10.6-21.6,7.2
	c-1.8-0.8-3.1-2.9-5.4-5.2c-2.7,0.2-2.7,0.2-10.2-9.4c-1.4,3.4-2.9,6.3-3.7,9.3c-3.3,11.9-7.6,23.3-14.6,33.5
	c-4.9,7.1-12,8.1-18.8,2.7c-5.3-4.2-6.1-10.7-6.3-16.5c-0.2-8.9,0.5-17.8,2.1-26.5c2.4-13.5,5.7-26.9,8.6-40.3
	C541.2,137.3,542.4,131.1,543.8,124.4L543.8,124.4z M593.4,148.2c-0.1,2.8-0.3,5.9-0.3,9.1c0,3.3,0.2,6.6,0.6,9.9
	c0.9,7.2,7.8,11.2,11.9,6.6c5-5.7,9.6-12.4,12.1-19.5c2.5-7.1,2.9-15.3,2.9-23c-0.1-6.8-1.1-13.5-2.9-20c-0.7-2.7-4-5.3-6.7-6.5
	c-1.1-0.5-4.6,2.8-5.8,5C598.7,121.6,595.7,134.6,593.4,148.2L593.4,148.2z M685.7,121.1l-2.1-0.2c-1,1.8-2.4,3.4-3.1,5.3
	c-2.3,6.6-4.3,13.2-6.3,19.8c-4.4,14.3-8.7,28.7-13.2,43c-1,3.2,0.4,4,2.8,2.6c4.2-2.5,8.9-4.8,12.1-8.4
	c12.7-14.1,16.5-30.9,13.1-49.4C688.2,129.5,686.8,125.3,685.7,121.1L685.7,121.1z M413,170.5c-0.7-7.5-1.3-15.1-2.3-22.6
	c-0.3-1.9-2.1-4.6-3.8-5.1c-1.7-0.5-4.3,1.2-5.6,2.7c-2,2.2-3.4,4.8-4.3,7.6c-1.9,5.9-3.5,12-4.6,18.1c-1,5.8-1.5,11.8-1.4,17.7
	c0,2.1,1.6,5.6,3.2,6c2.1,0.5,5.2-0.7,7-2.3C407.6,186.9,412,179.8,413,170.5z M345.4,192.2c-9.4,15.2-16.7,31.3-29.3,44
	c7.7-1.9,15.2-4.2,22.6-7c1.6-0.6,3-3.5,3.3-5.5c1.3-9.1,2.3-18.2,3.3-27.3C345.5,195,345.5,193.6,345.4,192.2L345.4,192.2z
	 M420.1,22.9c-7.9,0.9-20.7,20.1-20.5,30.8C412.7,51.1,424.8,41.5,420.1,22.9L420.1,22.9z M287.1,178.9c9.5-9.9,15.8-25.8,12.9-32.3
	C293.8,156.9,288.3,167.1,287.1,178.9L287.1,178.9z"/>
<path class="st0" d="M260.4,173c-0.3-16.7-6.6-30.5-20.5-40.2c-4.4-3.1-9.3-5.4-13.7-7.9c4.1-8.8,8.7-17.4,12.2-26.5
	c6.9-17.8,8.9-36.1,2.1-54.5c-0.8-2-2.9-3.6-3.6-5.6c-5.2-15.8-19-22.2-32.3-28.7c-5.9-2.9-13.1-3.2-19.6-5.2
	c-18.3-5.5-36.7-5.1-55-1.2c-5.6,1.2-10.8,3.8-16.3,5.5c-23.3,7.2-44.4,18-61.9,35.4C40.7,55.1,29,65.7,21.2,79.5
	c-8,14.2-14.3,28.8-13.7,45.8c0.4,9.7,1.6,19.1,4.9,28.1c8.2,22.1,25.9,36.4,50.3,37.1c1.5,0.2,3,0.6,4.4,1
	c-11.4,10.2-24,17.4-32.9,29.1c-4.8,6.2-11.4,11-15.8,17.4c-7.5,10.5-12.1,22.4-15.6,35c-6.9,24.2-0.6,45.7,12.8,65.4
	c5.2,7.5,12.3,14,19.6,19.4c7.2,5.3,15.7,8.8,23,12.6c1.6,0.6,3.2,1.2,4.8,1.7l6.8,0.8c0-0.1,0-0.1,0-0.2c-0.9-0.7-1.7-1.5-2.6-2.2
	s-1.8-1.3-2.7-1.9l-0.1,0l-0.2-0.1c-0.9-0.6-2-1.2-3-1.8c-0.3-0.1-0.5-0.3-0.7-0.6c-6.6-4.1-14-7.2-20.1-11.8
	c-6.3-5-11.8-10.8-16.5-17.4c-4.4-5.8-7.8-12.2-10.1-19.1c-2.9-9.5-5.9-19.7-5.5-29.4c0.6-13.1,5.9-25.6,13.1-36.7
	c5.5-8.2,11.5-16,18.1-23.4c4.6-5.2,9.6-9.9,15.1-14.2c4.6-3.6,10.6-5.7,14.9-9.6c9.8-8.7,19.1-18,28.4-27.3
	c3.3-3.5,6.1-7.4,8.3-11.6c1-1.8,0.6-4.8-0.3-6.8c-0.4-1-3.4-1.3-5.2-1.2c-4.9,0.4-7.7,3.9-10.7,7.3c-2.5,2.8-5.3,5.3-8.5,7.4
	c-5.5,3.6-11.6,3.5-18.1,2.9c-12.5-1.2-24.7-10.8-27.2-22.8c-1.4-6.6-3.4-13.1-0.7-20.3c2-5.4,0.9-12,3.1-17.3
	c4-9.3,8-18.6,14.9-26.6c7.4-8.6,15.5-16.4,24.8-22.5c10.5-6.8,20.8-14,32.9-18.6c11.2-4.2,22.5-8,34.3-9.1
	c18.2-1.6,34.6,3.8,48.1,16.7c7.3,6.9,10,16.1,10.2,25.5c0.1,10.9-2.5,21.7-7.8,31.2c-4.8,9.1-10.2,17.5-18.4,23.8
	c-12.7,9.8-16,19.8-10.8,33.8c1.5,4.2,3.5,8.1,8.3,9.1c5.9,1.2,10.8-1.8,13.7-6.1c6.8-10.1,16.3-15.6,27.5-18.9
	c11.1-3.3,20.3,2.4,19.7,13.8c-0.9,15.3-3.3,30.5-5.6,45.7c-0.7,4.6-3.1,8.9-4.8,13.4c-1.6,4.1-3,8.2-4.9,12.2
	c-4.1,8.6-7.7,17.5-12.9,25.5c-5.8,9.1-12.8,17.5-19.8,25.7c-5,5.9-10.1,11.9-16.3,16.2c-9.5,6.6-19.9,11.9-30,17.6
	c-1.1,0.6-2.5,0.4-3.8,0.6c-3.8,0.4-9.5-0.5-11,1.6c-3.7,5.2-9.3,4.4-13.8,6.4c-6.8,2.9-9.8,0.7-10.3-6.7c-0.2-2.5-0.3-5-0.2-7.4
	c0.4-7.5-0.1-15.3,1.6-22.5c2.1-9,5.7-17.8,9.4-26.3c3.3-7.5,7.5-14.6,11.4-21.8c5.9-11,12.2-21.7,17.7-33c3.1-6.3,4.8-13.3,6.9-20
	c1.7-5.5,3.6-11.1,4-16.8c1.1-15.2,2.3-30.4,1.8-45.6c-0.3-7.8-3.7-15.6-6.4-23.2c-1.2-3.7-5-5.8-8.8-4.9c-3.1,0.7-4.5,6.1-3.2,10.4
	c1.9,6.3,4.1,12.6,5.7,19c3.2,12.7,5.8,25.7,3.2,38.8c-1.6,8.1-3.7,16-6.1,23.9c-2.1,6.8-4.9,13.4-7.4,20.1l-1.3-0.4
	c0.4-1.5,0.8-2.9,1.1-4.4c2.8-11.9,6.1-23.7,8.2-35.7c1.4-8.1,1.2-16.4,1.4-24.7c0.4-16.8-5.4-30.6-19.3-40.7
	c-10.9-7.9-22.8-10.3-36-6.7c-10.5,2.9-20.5,20.1-15.4,31.6c0.4-1.6,0.7-2.6,1-3.6c1.8-6.8,4.9-12.8,11.2-16.5
	c12.4-7.2,27.4,1.4,31.3,11.7c1.2,3.2,1.4,6.7,2,10.1c2,10.3,1.4,21-1.7,31c-4.8,14.7-11.4,28.8-18.1,42.8
	c-6.4,13.3-14.3,26-20.8,39.3c-7.8,15.9-12.7,32.6-13.2,50.5c-0.5,11.7,1.4,23.4,5.7,34.3c4.5,11,9.9,21.7,21.5,26.9
	c4.4,2,9,3.3,13.7,3.9c10.5,1.2,21.2,2.4,31.8,2.3c4.7-0.1,9.5-3.1,14.1-5.2c5.6-2.7,11.7-5.1,16.4-9c12-9.9,23.5-20.2,34.8-31
	c10.2-10,18.8-21.5,25.4-34.2c6.8-13,12.6-26.5,18.6-39.8c2.4-5,4.3-10.3,5.8-15.7c3.3-13.1,6.6-26.3,9-39.6
	C261.2,186.5,260.6,179.7,260.4,173z"/>
</svg>
